<svg width="116" height="95" viewBox="0 0 116 95" fill="none" xmlns="http://www.w3.org/2000/svg">
<path d="M7.79363 43.8498C5.33625 38.5536 4.46121 33.0621 4.91913 27.2935C6.16142 11.7637 20.9102 -0.972573 36.4706 0.0585047C44.2417 0.571773 50.9791 3.35614 56.4606 8.9067C57.7437 10.2058 58.3648 10.0422 59.5844 8.86128C76.5911 -7.66323 104.561 0.19477 110.342 23.1238C111.937 29.4556 111.443 35.7102 109.09 41.8104C108.827 42.4917 108.306 43.0958 108.406 44.1133C109.525 44.1133 110.641 44.0951 111.756 44.1133C114.445 44.1587 115.964 45.3669 115.995 47.4654C116.027 49.5775 114.504 50.8766 111.856 50.9175C109.593 50.9538 107.326 50.9901 105.064 50.8993C103.817 50.8493 102.974 51.2945 102.108 52.162C88.5788 65.7704 75.0133 79.3471 61.457 92.9282C58.6867 95.7035 57.2994 95.6899 54.4929 92.8783C41.0408 79.4061 27.5751 65.9476 14.1638 52.43C13.053 51.3126 11.9694 50.813 10.4142 50.8947C8.23342 51.0128 6.03448 50.9674 3.84913 50.9084C1.41896 50.8448 -0.072697 49.4367 -0.000154473 47.3973C0.0678541 45.4487 1.50964 44.2313 3.85367 44.0996C5.10956 44.0269 6.38812 44.3267 7.79363 43.8453V43.8498ZM57.7391 51.6851C61.4161 45.2397 64.9435 39.0078 68.5253 32.8077C70.3117 29.7145 73.1363 29.6782 75.0813 32.6987C77.2077 35.9963 79.3341 39.294 81.3472 42.6597C82.0228 43.7862 82.7844 44.1632 84.0675 44.1405C88.7465 44.0678 93.4301 44.0315 98.109 44.1541C99.705 44.195 100.544 43.6181 101.301 42.3009C107.086 32.2581 104.674 19.2902 95.6109 12.0317C86.4297 4.68246 73.2678 5.19573 64.7576 13.2536C63.3884 14.5526 62.1053 15.9426 60.7361 17.2462C58.8364 19.054 57.118 19.0312 55.2047 17.1917C53.7901 15.829 52.4526 14.3846 51.0154 13.0492C42.5007 5.16393 29.4294 4.75968 20.3208 12.0817C11.2847 19.3447 8.90897 32.3535 14.7305 42.3645C15.4514 43.6 16.1995 44.2268 17.732 44.1541C20.747 44.0133 23.7711 44.036 26.7862 44.145C28.1463 44.195 28.7584 43.7272 29.2617 42.4781C31.7553 36.3325 34.3759 30.2414 36.9149 24.1185C37.5451 22.6014 38.461 21.5113 40.202 21.4613C41.9339 21.4114 42.9269 22.4061 43.6614 23.8869C45.8376 28.2792 48.0774 32.6351 50.2945 37.0047C52.7382 41.8285 55.182 46.6523 57.7301 51.6805L57.7391 51.6851ZM71.9711 40.5158C68.2669 46.9794 64.7304 53.1068 61.2484 59.2569C60.3643 60.8194 59.4983 62.3138 57.3991 62.2321C55.4133 62.1548 54.6516 60.6968 53.8808 59.1615C49.8864 51.2172 45.8512 43.2911 41.8206 35.3604C41.4534 34.6337 41.2675 33.7888 40.4786 33.2483C38.4338 38.1403 36.3391 42.9822 34.3895 47.8787C33.5099 50.0908 32.0727 51.0492 29.7196 50.9447C27.4118 50.8448 25.0905 50.922 22.7193 50.922C22.887 51.9077 23.5354 52.2347 23.9887 52.6889C34.8157 63.5538 45.679 74.3824 56.4561 85.2973C57.7346 86.5964 58.3603 86.4828 59.5708 85.261C70.357 74.3597 81.2202 63.5266 92.0427 52.6571C92.4825 52.2165 93.1716 51.9167 93.2306 50.9265C89.4312 50.9265 85.6771 50.8312 81.9321 50.9629C79.5608 51.0446 77.9377 50.277 76.7543 48.1513C75.3398 45.6076 73.6713 43.2094 71.9711 40.5204V40.5158Z" fill="white"/>
</svg>
