<svg width="29" height="29" viewBox="0 0 29 29" fill="none" xmlns="http://www.w3.org/2000/svg">
<g clip-path="url(#clip0_35_277)">
<path d="M14.5181 29C6.52177 29.0068 0 22.4955 0 14.5028C0 6.50792 6.51384 -0.00339883 14.5113 1.33105e-06C22.5043 0.0034015 29.0091 6.52378 29.0011 14.5244C28.9932 22.4898 22.4873 28.9932 14.5193 29H14.5181ZM15.5292 9.43659C15.5292 8.04026 15.5337 6.64279 15.5269 5.24646C15.5235 4.53922 15.1075 4.08133 14.4966 4.0836C13.8857 4.08587 13.4742 4.54375 13.4731 5.25439C13.4686 8.293 13.4742 11.3316 13.4674 14.3714C13.4674 14.7329 13.5661 15.0321 13.8222 15.2883C15.3319 16.7945 16.8394 18.3042 18.348 19.8116C18.5384 20.002 18.7526 20.1482 19.0337 20.1686C19.4962 20.2015 19.8487 20.0202 20.0561 19.6087C20.3009 19.1225 20.1649 18.6998 19.7931 18.328C18.484 17.0212 17.184 15.7054 15.8624 14.411C15.6096 14.1628 15.5178 13.918 15.5224 13.5712C15.5405 12.193 15.5303 10.8159 15.5303 9.43772L15.5292 9.43659Z" fill="#C1DD9E"/>
</g>
<defs>
<clipPath id="clip0_35_277">
<rect width="29" height="29" fill="white"/>
</clipPath>
</defs>
</svg>
