<svg width="63" height="54" viewBox="0 0 63 54" fill="none" xmlns="http://www.w3.org/2000/svg">
<mask id="mask0_321_1026" style="mask-type:luminance" maskUnits="userSpaceOnUse" x="31" y="0" width="32" height="31">
<path d="M36.0057 9.75984C36.0057 6.73035 38.4703 4.26126 41.4943 4.26126C44.5183 4.26126 46.9829 6.73035 46.9829 9.75984V15.1807H52.5324C55.634 15.1807 58.154 17.7053 58.154 20.8125C58.154 23.9196 55.634 26.4442 52.5324 26.4442H36.0057V9.76539V9.75984ZM31.7521 9.75984V27.3209C31.7521 29.1852 33.2641 30.6999 35.125 30.6999H52.5324C57.9767 30.6999 62.4075 26.2611 62.4075 20.8125C62.4075 15.3638 57.9767 10.9195 52.5324 10.9195H51.2309V9.75984C51.2309 4.37778 46.861 0 41.4887 0C36.1164 0 31.7466 4.37778 31.7466 9.75984" fill="white"/>
</mask>
<g mask="url(#mask0_321_1026)">
<path d="M62.4073 0.00012207H31.752V30.7001H62.4073V0.00012207Z" fill="#1E5542"/>
</g>
<path d="M21.6777 15.1807C17.5017 15.1807 14.1011 11.7739 14.1011 7.59037C14.1011 3.40679 17.5017 0 21.6777 0C25.8537 0 29.2543 3.40679 29.2543 7.59037C29.2543 11.7739 25.8537 15.1807 21.6777 15.1807ZM21.6777 4.26126C19.8445 4.26126 18.3546 5.75381 18.3546 7.59037C18.3546 9.42693 19.8445 10.9195 21.6777 10.9195C23.5109 10.9195 25.0008 9.42693 25.0008 7.59037C25.0008 5.75381 23.5109 4.26126 21.6777 4.26126Z" fill="#173F72"/>
<mask id="mask1_321_1026" style="mask-type:luminance" maskUnits="userSpaceOnUse" x="0" y="18" width="49" height="36">
<path d="M3.37846 18.238C2.44246 18.238 1.60062 18.6153 0.996923 19.2367C0.880615 19.3532 0.775385 19.4697 0.681231 19.5974C0.648 19.6417 0.614769 19.6917 0.587077 19.7361C0.465231 19.9136 0.36 20.1078 0.271385 20.3076C0.249231 20.3631 0.232615 20.413 0.216 20.4685C0.193846 20.524 0.177231 20.5739 0.160615 20.6294C0.0553846 20.9401 0 21.273 0 21.617V37.68C0 38.1516 0.0996923 38.5955 0.265846 39.0005C0.354462 39.2003 0.459692 39.3889 0.581538 39.572C0.609231 39.6164 0.648 39.6663 0.675692 39.7107C0.769846 39.8383 0.875077 39.9604 0.991385 40.0714C1.296 40.3765 1.66154 40.6262 2.06031 40.7982C2.11015 40.8204 2.16 40.8371 2.21538 40.8537C2.31508 40.8926 2.42585 40.9258 2.53108 40.9536C2.74708 41.0091 2.97415 41.0424 3.20123 41.0535C3.25662 41.0646 3.31754 41.0646 3.37292 41.0646H12.8825V50.6136C12.8825 52.4779 14.4 53.9926 16.2609 53.9926H32.3335C34.1945 53.9926 35.7065 52.4723 35.7065 50.6136V41.0646H45.216C47.0769 41.0646 48.5889 39.5443 48.5889 37.68V35.2275H44.3354V36.8033H31.4529V49.7313H17.136V36.8033H4.25908V22.4937H21.6775V18.2324H3.37846V18.238Z" fill="white"/>
</mask>
<g mask="url(#mask1_321_1026)">
<path d="M48.5945 18.2382H0V53.9983H48.5945V18.2382Z" fill="#1E5542"/>
</g>
</svg>
