<svg width="24" height="31" viewBox="0 0 24 31" fill="none" xmlns="http://www.w3.org/2000/svg">
<path d="M11.7934 0.00339418C17.6959 0.00339418 22.6145 4.09836 23.7086 9.79811C24.172 12.215 23.6678 14.5156 22.7558 16.7319C21.197 20.5239 18.8335 23.8054 16.3273 26.9859C15.5785 27.9363 14.797 28.8618 14.0101 29.7818C13.6404 30.2148 13.2381 30.6326 12.6931 30.8401C11.5066 31.2898 10.6219 30.7392 9.88251 29.8759C8.94745 28.783 8.03006 27.6721 7.14937 26.5335C4.79814 23.4941 2.59777 20.3523 1.02666 16.8024C-2.20934 9.48684 2.56107 1.18623 10.3405 0.120986C10.8801 0.0476641 11.4183 -0.0118236 11.7934 0.00201075V0.00339418ZM17.3915 12.1901C17.3996 9.09948 15.0212 6.65356 11.9973 6.63835C8.95832 6.62451 6.54458 9.0386 6.52691 12.1112C6.50788 15.235 8.89852 17.6961 11.9538 17.6975C14.9859 17.6989 17.3833 15.271 17.3915 12.1901Z" fill="#C1DD9E"/>
</svg>
