<svg width="79" height="108" viewBox="0 0 79 108" fill="none" xmlns="http://www.w3.org/2000/svg">
<g clip-path="url(#clip0_25_179)">
<path d="M9.16145 30.9519C12.0899 28.9107 15.0962 27.6266 18.3921 27.0019C32.92 24.2427 46.3219 36.8542 44.5194 51.5827C44.0007 55.8126 42.4835 59.6086 39.849 62.9404C39.4254 63.4762 39.447 63.769 39.9441 64.1551C40.2272 64.3742 40.4584 64.6584 40.7135 64.9143C41.3013 65.5 41.8092 66.4154 42.4987 66.5824C43.2681 66.769 43.6592 65.628 44.2838 65.1443C45.1786 64.4523 46.0842 64.4892 46.9811 65.3764C48.803 67.1768 50.6012 69.001 52.408 70.8144C57.2708 75.695 62.1357 80.5735 66.9942 85.4562C69.6223 88.0982 69.6115 91.0635 66.9726 93.7185C64.083 96.6252 61.2475 96.6208 58.3644 93.725C51.8741 87.2067 45.3774 80.6971 38.8829 74.181C37.4738 72.7667 37.4803 71.9814 38.898 70.5455C39.1509 70.2895 39.3908 70.0162 39.6653 69.7819C39.9678 69.5238 39.9052 69.3329 39.648 69.0835C38.7964 68.2505 37.9363 67.4262 37.1345 66.5499C36.6979 66.0727 36.458 66.4349 36.1705 66.6627C33.1102 69.0813 29.6544 70.552 25.8203 71.2418C13.6741 73.4283 1.35936 64.0814 0.13177 51.7628C-0.49283 45.4852 1.08488 39.891 4.99025 34.9605C5.3274 34.5353 5.48085 34.1254 5.47437 33.5874C5.45059 31.5636 5.4614 29.5398 5.46788 27.5159C5.49382 20.1669 11.0914 14.5422 18.3943 14.5271C21.2017 14.5205 24.0114 14.5054 26.8188 14.5401C27.5169 14.5487 27.8649 14.449 27.8065 13.6247C27.5493 9.94363 28.6732 9.95882 31.4028 10.0369C32.2652 10.0608 33.2961 10.3297 33.9531 9.95882C34.7506 9.50546 34.0309 8.43173 34.0979 7.62481C34.4783 3.03922 38.3772 -0.35334 42.946 0.0306002C47.409 0.403695 50.7179 4.40578 50.2338 8.9827C50.13 9.96316 50.3807 10.1215 51.2452 10.0629C52.3215 9.99135 53.4043 10.0326 54.4849 10.0499C55.9373 10.076 56.5468 10.7245 56.6354 12.1714C56.6829 12.9392 56.255 13.9652 56.8666 14.4078C57.3702 14.7722 58.3211 14.5227 59.0754 14.5249C61.416 14.5314 63.7567 14.5205 66.0973 14.5292C73.2813 14.5553 78.9265 20.1495 78.9805 27.3576C79.0237 33.1384 78.9913 38.9214 78.9913 44.7022C78.9913 61.3613 78.9913 78.0204 78.9913 94.6795C78.9913 102.445 73.452 108 65.7234 108C50.0241 108 34.327 108 18.6277 108C11.0244 108 5.47221 102.432 5.46788 94.8074C5.46572 88.8813 5.46789 82.9552 5.47221 77.0291C5.47221 76.669 5.44843 76.3002 5.50463 75.9466C5.65159 75.0074 6.22216 74.4716 7.1623 74.374C8.07002 74.2807 8.88049 74.8599 9.08149 75.7601C9.16794 76.1419 9.15929 76.5497 9.15929 76.9445C9.16361 82.799 9.27816 88.6557 9.12903 94.5059C8.98207 100.254 13.4472 104.389 18.9584 104.343C34.5474 104.211 50.1387 104.3 65.7277 104.297C71.4032 104.297 75.2977 100.402 75.2999 94.7011C75.3064 72.4413 75.3064 50.1814 75.302 27.9194C75.302 22.08 71.4399 18.232 65.6024 18.2255C62.903 18.2233 60.2014 18.2558 57.502 18.2059C56.7586 18.1929 56.6267 18.4402 56.6224 19.1192C56.6008 22.6028 56.4841 22.7004 53.0239 22.7004C45.4985 22.7004 37.973 22.7004 30.4497 22.7004C28.3036 22.7004 27.8022 22.1842 27.8022 19.9977C27.8022 18.8162 27.228 18.2255 26.0797 18.2255C23.5229 18.2255 20.9662 18.2168 18.4116 18.2298C13.19 18.2558 9.26735 22.143 9.17442 27.3815C9.15497 28.4986 9.17226 29.6179 9.17226 30.9541L9.16145 30.9519ZM22.8162 67.8036C33.2421 67.4739 41.3035 58.8125 40.9555 48.3116C40.6162 38.0537 31.9669 30.0799 21.5043 30.3814C11.5604 30.6677 3.38228 39.442 3.65892 49.5242C3.94205 59.871 12.5957 68.1268 22.8162 67.8036ZM42.1464 18.989C45.4552 18.989 48.7663 18.9738 52.0751 19.002C52.717 19.0085 52.9721 18.861 52.9418 18.1669C52.8878 16.9413 52.9029 15.7114 52.9375 14.4858C52.9548 13.9175 52.7667 13.7331 52.2005 13.7462C50.6552 13.7787 49.1056 13.7397 47.5603 13.7657C46.7066 13.7787 45.9826 13.5726 45.5568 12.7744C45.1527 12.0173 45.3666 11.3362 45.801 10.6443C47.1043 8.57273 46.806 6.27559 45.0813 4.77888C43.4323 3.34941 40.988 3.35157 39.3497 4.78539C37.6272 6.29295 37.3268 8.58357 38.63 10.6529C39.0688 11.3514 39.2525 12.0304 38.8634 12.7831C38.4679 13.5488 37.7807 13.77 36.9659 13.7613C35.3838 13.7462 33.7997 13.7765 32.2176 13.7462C31.66 13.7353 31.4612 13.898 31.4806 14.4772C31.5217 15.668 31.539 16.8632 31.4763 18.0498C31.4352 18.8155 31.6838 19.0172 32.4359 19.0085C35.6735 18.9673 38.911 18.9912 42.1485 18.989H42.1464ZM65.2177 89.5451C65.2263 89.0332 64.9605 88.6579 64.6212 88.3173C58.4098 82.0875 52.194 75.8642 45.9999 69.6171C45.5676 69.1811 45.345 69.2765 44.9927 69.6604C44.3573 70.3481 43.7111 71.0335 43.0066 71.6474C42.4273 72.1528 42.369 72.4565 42.972 73.0573C49.0797 79.1331 55.1528 85.2458 61.228 91.3541C61.7899 91.9181 62.3583 92.3867 63.2142 92.057C64.0441 91.7359 65.2393 90.2305 65.2198 89.5451H65.2177Z" fill="white"/>
<path d="M30.5665 94.1782C26.8643 94.1782 23.1599 94.1804 19.4577 94.1761C17.9967 94.1761 17.1862 93.4906 17.2057 92.3084C17.2251 91.1718 18.0313 90.4798 19.4145 90.4776C26.8924 90.469 34.3703 90.4711 41.8482 90.4776C43.2076 90.4776 44.0375 91.1935 44.0483 92.3193C44.0591 93.4602 43.2487 94.1739 41.8914 94.1761C38.1157 94.1847 34.3422 94.1782 30.5665 94.1782Z" fill="white"/>
<path d="M57.8178 60.1095C55.4425 60.1095 53.0673 60.116 50.69 60.1095C49.3803 60.1052 48.5763 59.4284 48.5482 58.3395C48.5179 57.192 49.337 56.4176 50.664 56.4133C55.4879 56.4024 60.3118 56.4002 65.1336 56.4133C66.4109 56.4176 67.2127 57.1573 67.2192 58.257C67.2257 59.3698 66.4325 60.1008 65.1595 60.1073C62.7108 60.1203 60.2643 60.1117 57.8156 60.1117L57.8178 60.1095Z" fill="white"/>
<path d="M57.9407 45.0641C60.2446 45.0641 62.5485 45.0597 64.8502 45.0641C66.3869 45.0663 67.2384 45.7452 67.2189 46.9404C67.2017 48.0966 66.3631 48.7625 64.8978 48.7625C60.1819 48.7668 55.4683 48.769 50.7524 48.7625C49.3952 48.7625 48.5566 48.0575 48.5415 46.9361C48.5263 45.8081 49.3563 45.0728 50.7049 45.0663C53.1168 45.0532 55.5288 45.0619 57.9386 45.0619L57.9407 45.0641Z" fill="white"/>
<path d="M57.8739 37.4005C55.4987 37.4005 53.1235 37.4092 50.7483 37.3962C49.3608 37.3897 48.5568 36.702 48.5482 35.5676C48.5395 34.4309 49.3543 33.6913 50.7159 33.6869C55.5031 33.6717 60.288 33.6717 65.0752 33.6869C66.439 33.6913 67.2343 34.4396 67.2148 35.5893C67.1954 36.7216 66.3914 37.3897 65.0017 37.3962C62.6265 37.407 60.2513 37.3983 57.8761 37.3983L57.8739 37.4005Z" fill="white"/>
<path d="M26.0516 79.1395C28.2453 79.1395 30.4368 79.133 32.6305 79.1395C34.0028 79.1438 34.8155 79.8336 34.822 80.9659C34.8284 82.1004 34.005 82.8357 32.6629 82.8379C28.2042 82.8466 23.7477 82.8466 19.2891 82.8336C18.0226 82.8292 17.2121 82.0939 17.2013 80.9985C17.1884 79.903 18.0053 79.1482 19.2588 79.1395C21.5238 79.1265 23.7888 79.1352 26.0538 79.1352L26.0516 79.1395Z" fill="white"/>
<path d="M62.5033 71.4975C61.6388 71.4975 60.7743 71.5257 59.912 71.491C58.6563 71.4411 57.8437 70.6537 57.8783 69.5756C57.9128 68.5323 58.7103 67.7947 59.9077 67.7796C61.6712 67.7557 63.4348 67.7579 65.1984 67.7839C66.4238 67.8034 67.1954 68.5149 67.2213 69.5713C67.2494 70.6732 66.4606 71.4259 65.2006 71.4975C65.1292 71.5018 65.0558 71.4975 64.9844 71.4975C64.1567 71.4975 63.3289 71.4975 62.5012 71.4975V71.4932L62.5033 71.4975Z" fill="white"/>
<path d="M32.985 48.8081C32.985 49.8189 32.9461 50.8319 32.998 51.8406C33.0369 52.5694 32.7602 52.7603 32.0665 52.7407C30.4131 52.6952 28.7576 52.7516 27.1042 52.7125C26.4472 52.6974 26.2246 52.9056 26.2397 53.5715C26.2786 55.2309 26.2333 56.8925 26.2657 58.5519C26.2786 59.2135 26.1446 59.5237 25.3796 59.5042C23.3307 59.4499 21.2797 59.4651 19.2308 59.4998C18.5738 59.5107 18.3469 59.2981 18.362 58.6365C18.3987 57.0487 18.3274 55.4587 18.3901 53.873C18.4247 52.9989 18.2021 52.6605 17.2684 52.706C15.654 52.782 14.033 52.706 12.4143 52.7386C11.8026 52.7516 11.6016 52.5368 11.6103 51.9273C11.6384 49.8341 11.6384 47.7409 11.6081 45.6476C11.5995 45.0012 11.8696 44.858 12.4467 44.8667C14.1368 44.8928 15.8269 44.8515 17.517 44.8884C18.1718 44.9036 18.4009 44.6932 18.3858 44.0273C18.349 42.3679 18.3966 40.7063 18.3642 39.0469C18.3512 38.3831 18.496 38.0751 19.2546 38.0946C21.3035 38.1467 23.3545 38.138 25.4033 38.1011C26.0668 38.0903 26.2808 38.3029 26.2657 38.9623C26.2289 40.5132 26.3305 42.0707 26.2289 43.6173C26.1576 44.7084 26.5445 44.9557 27.5581 44.8993C29.0991 44.8125 30.6508 44.8993 32.1961 44.8646C32.8121 44.8515 33.0174 45.0685 32.9958 45.6736C32.9591 46.7192 32.985 47.7669 32.985 48.8146V48.8081Z" fill="white"/>
</g>
<defs>
<clipPath id="clip0_25_179">
<rect width="79" height="108" fill="white"/>
</clipPath>
</defs>
</svg>
