<svg width="113" height="113" viewBox="0 0 113 113" fill="none" xmlns="http://www.w3.org/2000/svg">
<g clip-path="url(#clip0_26_216)">
<path d="M52.9847 85.4045C47.7016 82.3633 42.1053 80.6551 36.1161 80.2535C33.8122 80.099 32.0689 81.251 30.5021 82.8224C24.9586 88.3971 19.3932 93.9498 13.8321 99.5069C13.5717 99.7673 13.3113 100.023 13.0509 100.284C12.2035 101.131 11.2855 102.186 10.0938 100.99C8.84479 99.7364 9.88198 98.7521 10.8088 97.8517C11.44 97.2381 12.0579 96.6069 12.6802 95.9802C17.513 91.147 22.5047 86.4638 27.1257 81.4408C30.8772 77.3624 35.1407 76.2192 40.4281 77.3535C45.7818 78.5012 50.9015 80.1696 55.5533 83.0695C56.6082 83.7272 57.3408 83.6169 58.3118 83.0563C60.4038 81.8469 62.5223 80.6728 64.6894 79.6002C68.5203 77.6978 72.4793 79.2559 74.5801 82.9724C75.8954 85.2941 77.6078 87.479 79.5057 89.3549C82.3127 92.1224 82.2597 94.6648 78.9098 96.6114C74.536 99.1538 70.1269 101.63 65.7884 104.23C64.5393 104.98 63.4315 105.077 62.0677 104.627C59.0754 103.647 56.0168 102.875 53.02 101.912C49.8599 100.897 46.7174 100.125 43.3278 100.513C41.302 100.747 39.3689 100.037 37.8639 98.6197C36.9105 97.7192 36.3986 97.9223 35.6262 98.8404C32.2631 102.826 28.8249 106.75 25.4177 110.696C25.0337 111.142 24.6453 111.583 24.2569 112.02C23.511 112.868 22.6592 113.468 21.6308 112.537C20.651 111.649 21.0174 110.705 21.7677 109.84C25.2279 105.841 28.6263 101.784 32.1748 97.8649C33.5077 96.3907 34.4301 95.1636 32.6956 93.4069C32.2498 92.9566 32.0689 92.2548 31.7379 91.6854C31.142 90.6526 31.0802 89.7124 32.2498 89.068C33.3576 88.4633 34.1521 89.0636 34.5537 90.017C35.5953 92.502 37.6697 94.0381 39.5587 95.7595C40.6444 96.7526 41.8802 97.2778 43.3631 97.1587C43.5088 97.1454 43.6588 97.1278 43.8045 97.1498C51.0559 98.346 56.0256 93.6143 61.5558 90.3348C62.4164 89.8228 62.1428 89.3593 61.6705 88.7723C60.4038 87.1965 58.1397 86.7198 56.0786 87.7483C54.0483 88.759 52.0534 89.8537 50.0761 90.9748C48.8624 91.6634 47.887 91.4383 47.3133 90.2509C46.0068 87.5585 43.5573 86.711 40.9445 86.0754C40.3752 85.9341 39.7882 85.8282 39.2056 85.7929C38.0448 85.7267 37.065 85.325 37.1665 84.0229C37.2813 82.5884 38.4244 82.4163 39.6293 82.5222C42.6172 82.787 45.667 83.4182 47.684 85.6031C49.7893 87.8851 51.1707 86.8522 52.9802 85.4089L52.9847 85.4045ZM54.2646 98.8006C56.9701 99.6216 59.2916 100.253 61.5558 101.038C62.9725 101.533 64.1333 101.418 65.4485 100.615C68.997 98.4387 72.6514 96.4348 76.2352 94.3117C76.8973 93.9233 78.133 93.7335 78.0095 92.9169C77.8506 91.8929 76.7295 91.4206 75.7056 91.1205C74.5492 90.7806 73.5562 91.1867 72.572 91.7252C70.1357 93.0582 67.6818 94.3514 65.2587 95.7065C64.3054 96.2406 63.33 96.5142 62.3326 96.0375C60.5539 95.1857 59.0268 95.4637 57.5218 96.6908C56.6258 97.4191 55.5754 97.9576 54.2602 98.7918L54.2646 98.8006ZM65.219 91.8223C68.2335 90.6394 70.7801 88.4412 74.0638 87.6423C72.9648 86.2873 71.5348 85.9121 70.1136 86.5212C67.77 87.5187 64.8748 88.1632 65.219 91.8223ZM62.4561 84.8792C65.7001 86.7242 67.3419 83.0166 70.6609 83.0033C66.8255 80.9509 64.8748 83.7096 62.4561 84.8792Z" fill="#1E5542"/>
<path d="M85.7639 60.4967C82.9392 65.3387 81.3813 70.5604 80.706 76.0865C80.3794 78.779 81.2135 80.9462 83.129 82.8398C88.7254 88.366 94.2644 93.9496 99.8255 99.5155C100.24 99.9304 100.664 100.341 101.044 100.791C101.666 101.524 101.631 102.296 100.969 102.963C100.307 103.634 99.5033 103.607 98.7706 103.082C98.2984 102.742 97.9144 102.279 97.4995 101.864C92.3004 96.6641 87.2557 91.3012 81.8579 86.3224C77.7092 82.4911 76.5926 78.1567 77.7754 72.8026C78.9406 67.528 80.5692 62.4653 83.4468 57.8792C84.1 56.8376 84.0294 56.0916 83.4512 55.1073C82.2331 53.0196 81.0591 50.8965 79.9866 48.7337C78.0843 44.8936 79.6467 40.9343 83.3585 38.8421C85.6845 37.5312 87.8648 35.8098 89.7493 33.9118C92.5255 31.109 95.0632 31.1664 97.0052 34.5121C99.5474 38.8863 102.023 43.3002 104.627 47.6434C105.378 48.897 105.466 50.0093 105.029 51.3688C104.054 54.3658 103.277 57.4246 102.297 60.4172C101.26 63.5732 100.417 66.685 100.889 70.0969C101.167 72.1052 100.443 74.065 99.009 75.5613C98.0865 76.5235 98.3293 77.0179 99.2296 77.7815C103.383 81.2905 107.487 84.8614 111.601 88.419C112.488 89.187 113.658 89.9991 112.572 91.31C111.424 92.696 110.365 91.7294 109.394 90.8907C105.334 87.3861 101.251 83.9035 97.2259 80.3592C96.3388 79.5779 95.7297 79.2381 94.7057 80.2135C93.9863 80.8977 92.9271 81.2111 92.0356 81.7231C90.9719 82.3366 90.0406 82.2925 89.436 81.1316C88.849 80.0061 89.511 79.2381 90.4511 78.8452C92.9447 77.8124 94.4674 75.7158 96.1931 73.8266C97.1817 72.7408 97.6937 71.4917 97.5657 70.0086C97.5613 69.9336 97.5525 69.8585 97.5657 69.7879C98.7353 62.4741 94.0658 57.3937 90.6938 51.819C90.1245 50.8832 89.6346 51.3908 89.1182 51.819C87.5337 53.1255 87.1277 55.3192 88.1825 57.4158C89.2065 59.4462 90.3054 61.4368 91.4088 63.4187C92.0267 64.5266 91.8678 65.48 90.7644 66.0273C87.4896 67.6428 86.757 70.706 86.2362 73.8575C86.0331 75.0846 85.9625 76.4132 84.3516 76.2366C82.7627 76.0645 82.8377 74.6962 82.9613 73.4868C83.257 70.5824 84.1485 67.8899 85.9978 65.5903C87.9133 63.2112 87.9354 63.2289 85.7816 60.5011L85.7639 60.4967ZM99.2076 59.1902C100.081 56.2152 100.752 53.6728 101.591 51.1878C101.931 50.177 101.825 49.4134 101.3 48.5262C99.1061 44.8141 97.0096 41.0403 94.7808 37.3502C94.3571 36.644 94.3041 35.1124 93.0816 35.5141C91.9517 35.8848 91.5059 37.1737 91.4 38.4007C91.3206 39.3144 91.7134 40.1045 92.1415 40.8814C93.3684 43.128 94.4983 45.4277 95.8135 47.6214C96.6345 48.9897 96.8551 50.2609 96.2549 51.766C95.9239 52.5914 95.4693 53.4609 96.1887 54.4497C97.2126 55.8577 98.0733 57.3893 99.2076 59.1946V59.1902ZM88.0634 39.4513C86.5936 40.9255 86.1699 42.1084 87.0306 43.7195C88.1119 45.741 88.5533 48.6807 92.1415 48.0142C90.9145 45.0834 88.8313 42.5807 88.0634 39.4513ZM83.2438 43.1148C81.571 45.8999 83.2658 47.7538 84.3118 49.7003C84.5634 50.1682 84.6164 51.3246 85.4726 50.8612C86.1655 50.4816 86.5892 49.6385 85.9228 48.6277C84.8503 46.9946 83.9632 45.2379 83.2438 43.1192V43.1148Z" fill="#1E5542"/>
<path d="M14.4102 54.6219C13.5937 55.3017 13.0376 56.5773 11.6827 55.7739C10.2659 54.9397 10.8441 53.7082 11.2148 52.6489C12.2741 49.643 12.9273 46.6328 12.508 43.393C12.2608 41.4509 12.8743 39.5308 14.2425 38.1007C15.4121 36.8737 14.9399 36.2645 13.885 35.3774C9.67451 31.8198 5.53019 28.1871 1.36381 24.581C0.463442 23.7997 -0.648771 22.9743 0.467856 21.6855C1.52269 20.4628 2.54222 21.2264 3.48672 22.043C7.75903 25.7507 12.0578 29.4318 16.3081 33.1704C17.1378 33.9031 17.6851 34.1679 18.6428 33.2896C19.4284 32.5701 20.5407 32.1994 21.5028 31.6741C22.487 31.1356 23.3609 31.2018 23.9391 32.2479C24.5482 33.347 23.9612 34.1017 23.0299 34.5784C21.3792 35.4215 19.9581 36.4852 18.7311 37.9109C15.4033 41.7643 14.7501 48.8485 17.4468 53.1609C19.1195 55.8357 20.8629 58.4664 22.4385 61.1986C23.1755 62.4786 23.7714 62.2712 24.5526 61.3972C26.0576 59.72 26.2121 57.8661 25.1837 55.9064C24.1642 53.9598 23.1226 52.0221 22.0501 50.1021C21.5072 49.1354 21.3881 48.1335 22.4208 47.6082C25.9781 45.7941 26.7991 42.5102 27.2448 39.0056C27.3728 38.0036 27.7524 37.2886 28.7896 37.1826C29.6105 37.0988 30.1887 37.5799 30.4358 38.3567C30.5418 38.6922 30.5197 39.085 30.4976 39.447C30.299 42.5234 29.6414 45.6573 27.3993 47.7186C25.069 49.8637 26.265 51.2188 27.6023 53.0285C30.6124 47.7892 32.2939 42.2542 32.7574 36.3396C32.9427 33.9473 31.8129 32.1331 30.1754 30.5088C24.4908 24.8635 18.837 19.1828 13.1745 13.5198C12.8125 13.1578 12.433 12.8047 12.0887 12.4251C11.4002 11.6659 11.259 10.8361 12.0313 10.0814C12.7772 9.34864 13.6555 9.40602 14.3926 10.099C15.7299 11.3614 17.0098 12.6811 18.3074 13.9788C22.7254 18.3971 26.9977 22.9743 31.6054 27.1852C35.71 30.9326 36.7869 35.2229 35.6482 40.5063C34.4919 45.8603 32.8147 50.976 29.9239 55.6371C29.3413 56.5773 29.3192 57.2614 29.8753 58.206C31.1023 60.2893 32.2454 62.4257 33.3355 64.5841C35.3349 68.5389 33.7151 72.3084 30.0165 74.6875C27.8009 76.1131 25.3735 77.4859 23.5639 79.5471C20.9599 82.5089 18.3471 82.2794 16.3743 78.8807C13.8321 74.5065 11.4046 70.0617 8.73884 65.7626C7.70607 64.0941 8.11212 62.7082 8.74767 61.2163C9.10516 60.382 9.80692 59.9936 10.7205 60.3202C11.59 60.6292 12.1682 61.3752 11.8018 62.1962C11.1751 63.6174 11.9342 64.5797 12.5477 65.6434C14.7501 69.4526 16.9966 73.2353 19.1239 77.0842C19.8345 78.3686 20.3862 78.2671 21.1453 77.2431C22.231 75.7821 22.2266 74.2902 21.3483 72.7189C19.989 70.2868 18.6914 67.8239 17.3453 65.383C16.8686 64.5179 16.3831 63.5733 16.8818 62.6773C18.1441 60.4174 17.1908 58.6518 15.8755 56.8818C15.3503 56.18 14.9134 55.412 14.4102 54.6352V54.6219ZM25.3647 74.1092C27.0286 72.6129 27.0771 70.9224 26.1017 69.1613C25.069 67.2986 24.6099 64.5797 21.3086 65.5595C22.5753 68.4462 24.5923 70.9268 25.3647 74.1092ZM30.2593 70.0794C31.9188 67.5281 30.0827 65.6743 29.0853 63.7057C28.8514 63.2467 28.7763 62.1079 27.9289 62.5802C27.236 62.9686 26.8344 63.7807 27.4743 64.8136C28.5027 66.4688 29.3148 68.2564 30.2593 70.0794Z" fill="#1E5542"/>
<path d="M60.3862 27.2911C61.9618 28.0503 63.4492 28.8227 64.9895 29.4848C66.1547 29.988 66.6269 30.8046 66.1194 31.9169C65.6206 33.0159 64.5658 32.9585 63.6434 32.5172C61.6617 31.577 59.6712 30.628 57.7822 29.5201C56.8333 28.964 56.1492 28.9375 55.2047 29.4936C53.1259 30.7207 50.9942 31.8727 48.8315 32.9541C44.8637 34.9448 41.1387 33.3161 38.7466 29.6128C37.3166 27.397 35.944 24.9738 33.8872 23.1597C30.9346 20.5555 31.1685 17.9293 34.5537 15.9739C38.9937 13.405 43.4602 10.8759 47.8782 8.26725C48.911 7.65372 49.8113 7.5213 50.9721 7.9009C54.0351 8.89402 57.1599 9.69735 60.2361 10.6596C63.458 11.6704 66.6313 12.637 70.1225 12.125C72.0424 11.8425 73.9755 12.5134 75.3922 13.9038C76.5353 15.0205 77.0959 14.5791 77.93 13.5904C81.3373 9.54728 84.8019 5.55271 88.271 1.56255C89.061 0.653288 89.8907 -0.737087 91.3031 0.472319C92.7816 1.73911 91.5502 2.82492 90.6984 3.81363C87.2514 7.82586 83.8177 11.8469 80.3177 15.8106C79.5189 16.7154 79.2585 17.3113 80.1898 18.3309C80.9092 19.1166 81.2799 20.2245 81.7963 21.1955C82.3436 22.2196 82.1273 23.0582 81.0945 23.5923C80.0927 24.1131 79.3026 23.6232 78.9319 22.7448C77.8506 20.2024 75.7674 18.5737 73.7989 16.8214C72.7 15.8459 71.4642 15.3251 69.9812 15.4575C69.9062 15.4619 69.8312 15.4707 69.7605 15.4575C62.4517 14.2878 57.3761 18.9577 51.8018 22.3255C50.8706 22.8905 51.3561 23.3716 51.7886 23.8968C53.0862 25.4814 55.2885 25.8963 57.3805 24.8458C59.4108 23.8262 61.3969 22.7272 63.383 21.6193C64.4864 21.0057 65.4441 21.1293 65.9958 22.2416C67.6111 25.5123 70.6609 26.2538 73.8166 26.7835C75.0347 26.9866 76.3764 27.0439 76.222 28.6506C76.0675 30.2396 74.7125 30.191 73.4944 30.063C70.5903 29.7673 67.898 28.8801 65.5986 27.0395C63.2241 25.1415 63.2462 25.1151 60.3906 27.2823L60.3862 27.2911ZM59.1636 13.8155C56.2948 12.968 53.6952 12.2751 51.1575 11.4099C50.1335 11.0612 49.3788 11.2069 48.5005 11.7277C44.7843 13.917 41.0107 16.0136 37.321 18.2471C36.6236 18.6664 35.101 18.6973 35.5026 19.9552C35.8425 21.0101 37.0562 21.4383 38.1905 21.6016C39.1879 21.7429 40.0397 21.3279 40.8915 20.8645C43.1336 19.6374 45.4375 18.5119 47.631 17.1921C49.0081 16.3667 50.2792 16.1725 51.7753 16.7684C52.6095 17.0994 53.4746 17.532 54.4588 16.817C55.8667 15.7929 57.3982 14.9322 59.168 13.8199L59.1636 13.8155ZM48.0106 20.8645C45.0006 22.1489 42.5334 24.197 39.36 24.9562C40.4899 26.4216 42.0038 26.7747 43.4691 26.042C45.5831 24.9871 48.6417 24.6075 48.0062 20.8645H48.0106ZM43.138 29.7541C45.8612 31.4976 47.7458 29.7232 49.7186 28.6815C50.1688 28.4431 51.3163 28.4122 50.8088 27.5162C50.4778 26.9248 49.7319 26.4083 48.7653 27.0175C47.0484 28.0944 45.2565 29.0478 43.138 29.7541Z" fill="#1E5542"/>
<path d="M39.2542 53.9332C39.2762 45.8911 47.6973 40.6916 54.8958 44.3507C56.0653 44.9466 56.8642 45.0172 58.0558 44.386C62.6901 41.9407 68.3218 43.2472 71.4951 47.3477C74.6729 51.4526 74.5934 57.2701 71.0096 61.1014C67.1478 65.2284 63.0873 69.1656 59.0577 73.1381C57.4689 74.705 55.571 74.6962 53.9733 73.169C51.9034 71.1916 49.9084 69.1347 47.887 67.1087C47.0529 66.2745 46.7528 65.3432 47.7105 64.4383C48.6065 63.5908 49.4715 64.0013 50.2174 64.7429C51.9387 66.4466 53.6909 68.1239 55.3459 69.8939C56.1624 70.7678 56.6832 70.9046 57.5968 69.9601C61.0703 66.376 64.6762 62.9155 68.154 59.3314C71.1023 56.2903 71.2126 51.9779 68.5557 48.9853C65.8811 45.9706 61.6308 45.5822 58.2589 48.1908C57.0054 49.1618 56.1139 49.2766 54.8075 48.2482C51.5415 45.6793 47.5913 45.8956 44.8108 48.6057C42.1053 51.2364 41.7831 55.1338 44.0605 58.4222C44.7755 59.455 45.5081 60.4702 44.1488 61.428C42.7673 62.3991 42.0126 61.2515 41.302 60.3069C39.9294 58.4796 39.2497 56.3123 39.2586 53.9377L39.2542 53.9332Z" fill="#1E5542"/>
<path d="M76.7117 35.7878C75.5068 35.5847 73.7723 35.2934 72.0378 34.9933C71.005 34.8167 70.4622 34.1988 70.599 33.1483C70.7402 32.0713 71.4817 31.7049 72.4968 31.78C72.7175 31.7976 72.947 31.78 73.1544 31.8462C78.102 33.4175 81.6549 31.4578 84.996 27.8075C89.7538 22.6079 94.9176 17.7747 99.9093 12.787C100.743 11.9572 101.626 10.8272 102.858 11.9969C104.138 13.2107 103.162 14.2083 102.235 15.1308C96.4579 20.8953 90.685 26.6554 84.9298 32.4421C82.8068 34.5784 80.2823 35.7172 76.7162 35.7834L76.7117 35.7878Z" fill="#1E5542"/>
</g>
<defs>
<clipPath id="clip0_26_216">
<rect width="113" height="113" fill="white"/>
</clipPath>
</defs>
</svg>
