<svg width="29" height="22" viewBox="0 0 29 22" fill="none" xmlns="http://www.w3.org/2000/svg">
<g clip-path="url(#clip0_33_270)">
<path d="M0 4.09131C3.94795 6.75481 7.80412 9.35634 11.6592 11.9579C13.6422 13.2971 15.3521 13.3028 17.3227 11.9728C21.0395 9.46536 24.7563 6.95908 28.4731 4.45164C28.6238 4.34951 28.7745 4.24738 29 4.0959V4.67427C29 9.29782 29 13.9214 29 18.5449C29 20.6932 27.7071 21.9991 25.5778 21.9991C18.1987 22.0002 10.8183 22.0002 3.43916 21.9991C1.27821 21.9991 0 20.6989 0 18.5036C0 13.9179 0 9.33339 0 4.74772C0 4.56066 0 4.37361 0 4.09131Z" fill="#C1DD9E"/>
<path d="M14.5 -0.000227131C18.2542 -0.000227131 22.0084 -0.00252226 25.7614 0.000920436C27.0396 0.002068 27.996 0.574704 28.6431 1.69129C28.813 1.98392 28.8062 2.17097 28.489 2.38442C24.3268 5.17415 20.1806 7.98684 16.0173 10.7731C15.0315 11.433 13.9742 11.4341 12.9861 10.7731C8.82285 7.98684 4.67546 5.1753 0.515608 2.38556C0.202854 2.17556 0.184723 1.99195 0.356964 1.69473C1.004 0.576999 1.96039 0.00436314 3.23747 0.002068C6.99165 -0.00252226 10.7458 -0.000227131 14.5 -0.000227131Z" fill="#C1DD9E"/>
</g>
<defs>
<clipPath id="clip0_33_270">
<rect width="29" height="22" fill="white"/>
</clipPath>
</defs>
</svg>
